<?xml version="1.0" encoding="utf-8"?>
<!-- Generator: Adobe Illustrator 27.0.0, SVG Export Plug-In . SVG Version: 6.00 Build 0)  -->
<svg version="1.1" id="Слой_1" xmlns="http://www.w3.org/2000/svg" xmlns:xlink="http://www.w3.org/1999/xlink" x="0px" y="0px"
	 viewBox="0 0 1920 1331" style="enable-background:new 0 0 1920 1331;" xml:space="preserve">
<style type="text/css">
	.st0{fill:#FFFFFF;}
	.st1{fill:#F7931E;}
</style>
<g>
	<path class="st0" d="M476.08,240.08h-96.68c-10.68,0-19.34,8.66-19.34,19.34v835.36c0,10.68,8.66,19.34,19.34,19.34h96.68
		c10.68,0,19.34-8.66,19.34-19.34V259.42C495.41,248.74,486.75,240.08,476.08,240.08z"/>
	<path class="st0" d="M1442.92,1114.11h96.68c10.68,0,19.34-8.66,19.34-19.34V259.42c0-10.68-8.66-19.34-19.34-19.34l-96.68,0
		c-10.68,0-19.34,8.66-19.34,19.34v835.36C1423.59,1105.45,1432.25,1114.11,1442.92,1114.11z"/>
	<path class="st0" d="M302.04,336.77H224.7c-10.68,0-19.34,8.66-19.34,19.34v641.99c0,10.68,8.66,19.34,19.34,19.34h77.35
		c10.68,0,19.34-8.66,19.34-19.34V356.1C321.38,345.43,312.72,336.77,302.04,336.77z"/>
	<path class="st0" d="M1616.96,1017.43h77.35c10.68,0,19.34-8.66,19.34-19.34V356.1c0-10.68-8.66-19.34-19.34-19.34h-77.35
		c-10.68,0-19.34,8.66-19.34,19.34v641.99C1597.62,1008.77,1606.28,1017.43,1616.96,1017.43z"/>
	<path class="st0" d="M147.35,433.45H89.34c-10.68,0-19.34,8.66-19.34,19.34v448.62c0,10.68,8.66,19.34,19.34,19.34h58.01
		c10.68,0,19.34-8.66,19.34-19.34V452.79C166.68,442.11,158.03,433.45,147.35,433.45z"/>
	<path class="st0" d="M1771.65,920.74h58.01c10.68,0,19.34-8.66,19.34-19.34V452.79c0-10.68-8.66-19.34-19.34-19.34h-58.01
		c-10.68,0-19.34,8.66-19.34,19.34v448.62C1752.32,912.08,1760.97,920.74,1771.65,920.74z"/>
	<path class="st1" d="M658.18,302.66l-10.88,31.7c-4.31,12.55,5.02,25.61,18.29,25.61h588.55c13.06,0,22.37-12.68,18.45-25.14
		l-9.97-31.7c-2.53-8.05-10-13.53-18.45-13.53h-84.99c-5.99,0-11.64-2.78-15.31-7.52l-26.62-34.48c-3.66-4.74-9.32-7.52-15.31-7.52
		H819.07c-5.99,0-11.64,2.78-15.3,7.52l-26.63,34.48c-3.66,4.74-9.31,7.52-15.3,7.52h-85.37
		C668.2,289.6,660.86,294.85,658.18,302.66z"/>
	<path class="st0" d="M553.42,638.42h812.15c10.68,0,19.34,8.66,19.34,19.34v38.67c0,10.68-8.66,19.34-19.34,19.34H553.42
		c-10.68,0-19.34-8.66-19.34-19.34v-38.67C534.09,647.08,542.74,638.42,553.42,638.42z"/>
	<path class="st1" d="M671.69,400.67c-1.2-11.42,7.75-21.36,19.23-21.36h537.15c11.48,0,20.43,9.94,19.23,21.36l-73.28,696.13
		c-1.04,9.84-9.34,17.31-19.23,17.31H764.2c-9.89,0-18.19-7.47-19.23-17.31L671.69,400.67z"/>
	<polygon class="st0" points="1078.02,652.07 977.23,652.07 999.1,502.13 843.38,725.72 944.16,725.72 922.29,875.66 	"/>
</g>
</svg>
